<mxfile host="app.diagrams.net" modified="2024-06-06T00:50:59.067Z" agent="Mozilla/5.0 (Windows NT 10.0; Win64; x64) AppleWebKit/537.36 (KHTML, like Gecko) Chrome/125.0.0.0 Safari/537.36" etag="CSDwWvlFSs585GZT54eK" version="24.4.14" type="github" pages="2">
  <diagram name="Halaman-1" id="lMLavH1xlRXRH9-uk9Y9">
    <mxGraphModel dx="880" dy="460" grid="1" gridSize="10" guides="1" tooltips="1" connect="1" arrows="1" fold="1" page="1" pageScale="1" pageWidth="827" pageHeight="1169" math="0" shadow="0">
      <root>
        <mxCell id="0" />
        <mxCell id="1" parent="0" />
        <mxCell id="_h3J9JZSU5bDhBo72M3B-1" value="formilir pendataan anggiota yang belum diisi" style="shape=document;whiteSpace=wrap;html=1;boundedLbl=1;" parent="1" vertex="1">
          <mxGeometry x="40" y="80" width="120" height="80" as="geometry" />
        </mxCell>
        <mxCell id="_h3J9JZSU5bDhBo72M3B-2" value="pendataan&lt;div&gt;anggota&lt;/div&gt;" style="shape=trapezoid;perimeter=trapezoidPerimeter;whiteSpace=wrap;html=1;fixedSize=1;direction=west;" parent="1" vertex="1">
          <mxGeometry x="600" y="200" width="120" height="60" as="geometry" />
        </mxCell>
        <mxCell id="_h3J9JZSU5bDhBo72M3B-3" value="siswa, karyawan, guru" style="text;html=1;align=center;verticalAlign=middle;whiteSpace=wrap;rounded=0;" parent="1" vertex="1">
          <mxGeometry x="50" width="150" height="40" as="geometry" />
        </mxCell>
        <mxCell id="_h3J9JZSU5bDhBo72M3B-4" value="admin" style="text;html=1;align=center;verticalAlign=middle;whiteSpace=wrap;rounded=0;" parent="1" vertex="1">
          <mxGeometry x="450" width="150" height="40" as="geometry" />
        </mxCell>
        <mxCell id="_h3J9JZSU5bDhBo72M3B-5" value="formilir pendataan anggiota yang belum diisi" style="shape=document;whiteSpace=wrap;html=1;boundedLbl=1;" parent="1" vertex="1">
          <mxGeometry x="380" y="80" width="120" height="80" as="geometry" />
        </mxCell>
        <mxCell id="_h3J9JZSU5bDhBo72M3B-6" value="" style="endArrow=classic;html=1;rounded=0;entryX=1;entryY=0.5;entryDx=0;entryDy=0;exitX=0;exitY=0.5;exitDx=0;exitDy=0;" parent="1" source="_h3J9JZSU5bDhBo72M3B-5" target="_h3J9JZSU5bDhBo72M3B-1" edge="1">
          <mxGeometry width="50" height="50" relative="1" as="geometry">
            <mxPoint x="390" y="270" as="sourcePoint" />
            <mxPoint x="440" y="220" as="targetPoint" />
          </mxGeometry>
        </mxCell>
        <mxCell id="_h3J9JZSU5bDhBo72M3B-7" value="pengisian data anggota" style="shape=document;whiteSpace=wrap;html=1;boundedLbl=1;" parent="1" vertex="1">
          <mxGeometry x="40" y="200" width="120" height="80" as="geometry" />
        </mxCell>
        <mxCell id="_h3J9JZSU5bDhBo72M3B-12" style="edgeStyle=orthogonalEdgeStyle;rounded=0;orthogonalLoop=1;jettySize=auto;html=1;entryX=0;entryY=0.375;entryDx=0;entryDy=0;entryPerimeter=0;" parent="1" source="_h3J9JZSU5bDhBo72M3B-8" edge="1" target="_h3J9JZSU5bDhBo72M3B-13">
          <mxGeometry relative="1" as="geometry">
            <mxPoint x="350" y="240" as="targetPoint" />
            <Array as="points">
              <mxPoint x="200" y="360" />
              <mxPoint x="200" y="230" />
            </Array>
          </mxGeometry>
        </mxCell>
        <mxCell id="_h3J9JZSU5bDhBo72M3B-8" value="data anggota yang sudah disi" style="shape=document;whiteSpace=wrap;html=1;boundedLbl=1;" parent="1" vertex="1">
          <mxGeometry x="40" y="320" width="120" height="80" as="geometry" />
        </mxCell>
        <mxCell id="_h3J9JZSU5bDhBo72M3B-9" value="" style="endArrow=classic;html=1;rounded=0;entryX=0.5;entryY=0;entryDx=0;entryDy=0;exitX=0.5;exitY=0.875;exitDx=0;exitDy=0;exitPerimeter=0;" parent="1" source="_h3J9JZSU5bDhBo72M3B-1" target="_h3J9JZSU5bDhBo72M3B-7" edge="1">
          <mxGeometry width="50" height="50" relative="1" as="geometry">
            <mxPoint x="220" y="190" as="sourcePoint" />
            <mxPoint x="270" y="140" as="targetPoint" />
          </mxGeometry>
        </mxCell>
        <mxCell id="_h3J9JZSU5bDhBo72M3B-10" value="" style="endArrow=classic;html=1;rounded=0;entryX=0.5;entryY=0;entryDx=0;entryDy=0;exitX=0.5;exitY=0.875;exitDx=0;exitDy=0;exitPerimeter=0;" parent="1" edge="1">
          <mxGeometry width="50" height="50" relative="1" as="geometry">
            <mxPoint x="99.5" y="270" as="sourcePoint" />
            <mxPoint x="99.5" y="320" as="targetPoint" />
          </mxGeometry>
        </mxCell>
        <mxCell id="_h3J9JZSU5bDhBo72M3B-15" style="edgeStyle=orthogonalEdgeStyle;rounded=0;orthogonalLoop=1;jettySize=auto;html=1;" parent="1" source="_h3J9JZSU5bDhBo72M3B-13" target="_h3J9JZSU5bDhBo72M3B-2" edge="1">
          <mxGeometry relative="1" as="geometry">
            <Array as="points">
              <mxPoint x="530" y="230" />
              <mxPoint x="530" y="230" />
            </Array>
          </mxGeometry>
        </mxCell>
        <mxCell id="_h3J9JZSU5bDhBo72M3B-13" value="data anggota yang sudah disi" style="shape=document;whiteSpace=wrap;html=1;boundedLbl=1;" parent="1" vertex="1">
          <mxGeometry x="380" y="200" width="120" height="80" as="geometry" />
        </mxCell>
        <mxCell id="_h3J9JZSU5bDhBo72M3B-17" value="" style="endArrow=none;html=1;rounded=0;" parent="1" edge="1">
          <mxGeometry width="50" height="50" relative="1" as="geometry">
            <mxPoint as="sourcePoint" />
            <mxPoint x="760" as="targetPoint" />
          </mxGeometry>
        </mxCell>
        <mxCell id="_h3J9JZSU5bDhBo72M3B-18" value="" style="endArrow=none;html=1;rounded=0;" parent="1" edge="1">
          <mxGeometry width="50" height="50" relative="1" as="geometry">
            <mxPoint y="39" as="sourcePoint" />
            <mxPoint x="760" y="40" as="targetPoint" />
          </mxGeometry>
        </mxCell>
        <mxCell id="_h3J9JZSU5bDhBo72M3B-19" value="" style="endArrow=none;html=1;rounded=0;" parent="1" edge="1">
          <mxGeometry width="50" height="50" relative="1" as="geometry">
            <mxPoint as="sourcePoint" />
            <mxPoint y="520" as="targetPoint" />
          </mxGeometry>
        </mxCell>
        <mxCell id="_h3J9JZSU5bDhBo72M3B-20" value="" style="endArrow=none;html=1;rounded=0;" parent="1" edge="1">
          <mxGeometry width="50" height="50" relative="1" as="geometry">
            <mxPoint x="760" as="sourcePoint" />
            <mxPoint x="760" y="520" as="targetPoint" />
          </mxGeometry>
        </mxCell>
        <mxCell id="_h3J9JZSU5bDhBo72M3B-21" value="" style="endArrow=none;html=1;rounded=0;" parent="1" edge="1">
          <mxGeometry width="50" height="50" relative="1" as="geometry">
            <mxPoint x="280" as="sourcePoint" />
            <mxPoint x="280" y="520" as="targetPoint" />
          </mxGeometry>
        </mxCell>
        <mxCell id="z1hldF6nKvL_WsLs3R0V-1" value="laporan&amp;nbsp;&lt;div&gt;data anggota&lt;/div&gt;" style="shape=document;whiteSpace=wrap;html=1;boundedLbl=1;" vertex="1" parent="1">
          <mxGeometry x="600" y="320" width="120" height="80" as="geometry" />
        </mxCell>
        <mxCell id="z1hldF6nKvL_WsLs3R0V-2" value="" style="endArrow=classic;html=1;rounded=0;entryX=0.5;entryY=0;entryDx=0;entryDy=0;exitX=0.5;exitY=0;exitDx=0;exitDy=0;" edge="1" parent="1" source="_h3J9JZSU5bDhBo72M3B-2" target="z1hldF6nKvL_WsLs3R0V-1">
          <mxGeometry width="50" height="50" relative="1" as="geometry">
            <mxPoint x="390" y="310" as="sourcePoint" />
            <mxPoint x="440" y="260" as="targetPoint" />
          </mxGeometry>
        </mxCell>
        <mxCell id="z1hldF6nKvL_WsLs3R0V-3" value="A1" style="triangle;whiteSpace=wrap;html=1;direction=south;" vertex="1" parent="1">
          <mxGeometry x="620" y="440" width="80" height="60" as="geometry" />
        </mxCell>
        <mxCell id="z1hldF6nKvL_WsLs3R0V-4" value="" style="endArrow=classic;html=1;rounded=0;entryX=0;entryY=0.5;entryDx=0;entryDy=0;exitX=0.5;exitY=0;exitDx=0;exitDy=0;" edge="1" parent="1" target="z1hldF6nKvL_WsLs3R0V-3">
          <mxGeometry width="50" height="50" relative="1" as="geometry">
            <mxPoint x="659.5" y="390" as="sourcePoint" />
            <mxPoint x="659.5" y="450" as="targetPoint" />
          </mxGeometry>
        </mxCell>
        <mxCell id="z1hldF6nKvL_WsLs3R0V-5" value="" style="endArrow=none;html=1;rounded=0;" edge="1" parent="1">
          <mxGeometry width="50" height="50" relative="1" as="geometry">
            <mxPoint y="520" as="sourcePoint" />
            <mxPoint x="760" y="521" as="targetPoint" />
          </mxGeometry>
        </mxCell>
      </root>
    </mxGraphModel>
  </diagram>
  <diagram id="0V-bk1Ce213lzvZLzzdw" name="Halaman-2">
    <mxGraphModel dx="880" dy="460" grid="1" gridSize="10" guides="1" tooltips="1" connect="1" arrows="1" fold="1" page="1" pageScale="1" pageWidth="827" pageHeight="1169" math="0" shadow="0">
      <root>
        <mxCell id="0" />
        <mxCell id="1" parent="0" />
        <mxCell id="8Cre_9qktaq7agCZxoKe-4" value="admin" style="text;html=1;align=center;verticalAlign=middle;whiteSpace=wrap;rounded=0;" vertex="1" parent="1">
          <mxGeometry x="280" width="150" height="40" as="geometry" />
        </mxCell>
        <mxCell id="8Cre_9qktaq7agCZxoKe-5" value="data pelajaran" style="shape=document;whiteSpace=wrap;html=1;boundedLbl=1;" vertex="1" parent="1">
          <mxGeometry x="480" y="80" width="120" height="80" as="geometry" />
        </mxCell>
        <mxCell id="8Cre_9qktaq7agCZxoKe-14" value="" style="endArrow=none;html=1;rounded=0;" edge="1" parent="1">
          <mxGeometry width="50" height="50" relative="1" as="geometry">
            <mxPoint as="sourcePoint" />
            <mxPoint x="760" as="targetPoint" />
          </mxGeometry>
        </mxCell>
        <mxCell id="8Cre_9qktaq7agCZxoKe-15" value="" style="endArrow=none;html=1;rounded=0;" edge="1" parent="1">
          <mxGeometry width="50" height="50" relative="1" as="geometry">
            <mxPoint y="39" as="sourcePoint" />
            <mxPoint x="760" y="40" as="targetPoint" />
          </mxGeometry>
        </mxCell>
        <mxCell id="8Cre_9qktaq7agCZxoKe-16" value="" style="endArrow=none;html=1;rounded=0;" edge="1" parent="1">
          <mxGeometry width="50" height="50" relative="1" as="geometry">
            <mxPoint as="sourcePoint" />
            <mxPoint y="680" as="targetPoint" />
          </mxGeometry>
        </mxCell>
        <mxCell id="8Cre_9qktaq7agCZxoKe-17" value="" style="endArrow=none;html=1;rounded=0;" edge="1" parent="1">
          <mxGeometry width="50" height="50" relative="1" as="geometry">
            <mxPoint x="760" as="sourcePoint" />
            <mxPoint x="760" y="680" as="targetPoint" />
          </mxGeometry>
        </mxCell>
        <mxCell id="8Cre_9qktaq7agCZxoKe-23" value="" style="endArrow=none;html=1;rounded=0;" edge="1" parent="1">
          <mxGeometry width="50" height="50" relative="1" as="geometry">
            <mxPoint y="680" as="sourcePoint" />
            <mxPoint x="760" y="681" as="targetPoint" />
          </mxGeometry>
        </mxCell>
        <mxCell id="8Cre_9qktaq7agCZxoKe-40" style="edgeStyle=orthogonalEdgeStyle;rounded=0;orthogonalLoop=1;jettySize=auto;html=1;entryX=0.5;entryY=0;entryDx=0;entryDy=0;" edge="1" parent="1" source="8Cre_9qktaq7agCZxoKe-24" target="8Cre_9qktaq7agCZxoKe-30">
          <mxGeometry relative="1" as="geometry" />
        </mxCell>
        <mxCell id="8Cre_9qktaq7agCZxoKe-24" value="pembagian kelas dan&amp;nbsp;&lt;div&gt;jadwal pelajaran&lt;/div&gt;" style="shape=trapezoid;perimeter=trapezoidPerimeter;whiteSpace=wrap;html=1;fixedSize=1;direction=west;" vertex="1" parent="1">
          <mxGeometry x="280" y="210" width="160" height="60" as="geometry" />
        </mxCell>
        <mxCell id="8Cre_9qktaq7agCZxoKe-25" value="data kelas" style="shape=document;whiteSpace=wrap;html=1;boundedLbl=1;" vertex="1" parent="1">
          <mxGeometry x="120" y="80" width="120" height="80" as="geometry" />
        </mxCell>
        <mxCell id="8Cre_9qktaq7agCZxoKe-26" value="" style="endArrow=classic;html=1;rounded=0;entryX=0;entryY=0.5;entryDx=0;entryDy=0;exitX=0.5;exitY=0.875;exitDx=0;exitDy=0;exitPerimeter=0;" edge="1" parent="1" source="8Cre_9qktaq7agCZxoKe-5" target="8Cre_9qktaq7agCZxoKe-24">
          <mxGeometry width="50" height="50" relative="1" as="geometry">
            <mxPoint x="540" y="150" as="sourcePoint" />
            <mxPoint x="380" y="230" as="targetPoint" />
            <Array as="points">
              <mxPoint x="540" y="240" />
            </Array>
          </mxGeometry>
        </mxCell>
        <mxCell id="8Cre_9qktaq7agCZxoKe-29" value="" style="endArrow=classic;html=1;rounded=0;exitX=0.5;exitY=0.838;exitDx=0;exitDy=0;exitPerimeter=0;entryX=1;entryY=0.5;entryDx=0;entryDy=0;" edge="1" parent="1" source="8Cre_9qktaq7agCZxoKe-25" target="8Cre_9qktaq7agCZxoKe-24">
          <mxGeometry width="50" height="50" relative="1" as="geometry">
            <mxPoint x="330" y="280" as="sourcePoint" />
            <mxPoint x="380" y="230" as="targetPoint" />
            <Array as="points">
              <mxPoint x="180" y="240" />
            </Array>
          </mxGeometry>
        </mxCell>
        <mxCell id="8Cre_9qktaq7agCZxoKe-41" style="edgeStyle=orthogonalEdgeStyle;rounded=0;orthogonalLoop=1;jettySize=auto;html=1;entryX=0.5;entryY=1;entryDx=0;entryDy=0;exitX=0.5;exitY=0.925;exitDx=0;exitDy=0;exitPerimeter=0;" edge="1" parent="1" source="8Cre_9qktaq7agCZxoKe-30" target="8Cre_9qktaq7agCZxoKe-34">
          <mxGeometry relative="1" as="geometry" />
        </mxCell>
        <mxCell id="8Cre_9qktaq7agCZxoKe-30" value="data kelas dan&lt;div&gt;jadwal pelajaran&lt;/div&gt;" style="shape=document;whiteSpace=wrap;html=1;boundedLbl=1;" vertex="1" parent="1">
          <mxGeometry x="300" y="320" width="120" height="80" as="geometry" />
        </mxCell>
        <mxCell id="8Cre_9qktaq7agCZxoKe-42" style="edgeStyle=orthogonalEdgeStyle;rounded=0;orthogonalLoop=1;jettySize=auto;html=1;entryX=0;entryY=0.5;entryDx=0;entryDy=0;" edge="1" parent="1" source="8Cre_9qktaq7agCZxoKe-34" target="8Cre_9qktaq7agCZxoKe-37">
          <mxGeometry relative="1" as="geometry" />
        </mxCell>
        <mxCell id="8Cre_9qktaq7agCZxoKe-34" value="cetak data kelas dan&amp;nbsp;&lt;div&gt;jadwal pelajaran&lt;/div&gt;" style="shape=trapezoid;perimeter=trapezoidPerimeter;whiteSpace=wrap;html=1;fixedSize=1;direction=west;" vertex="1" parent="1">
          <mxGeometry x="280" y="460" width="160" height="60" as="geometry" />
        </mxCell>
        <mxCell id="8Cre_9qktaq7agCZxoKe-43" style="edgeStyle=orthogonalEdgeStyle;rounded=0;orthogonalLoop=1;jettySize=auto;html=1;entryX=0;entryY=0.5;entryDx=0;entryDy=0;exitX=0.5;exitY=0.875;exitDx=0;exitDy=0;exitPerimeter=0;" edge="1" parent="1" source="8Cre_9qktaq7agCZxoKe-35" target="8Cre_9qktaq7agCZxoKe-38">
          <mxGeometry relative="1" as="geometry" />
        </mxCell>
        <mxCell id="8Cre_9qktaq7agCZxoKe-35" value="laporan&amp;nbsp;&lt;div&gt;data kelas dan&lt;div&gt;jadwal pelajaran&lt;/div&gt;&lt;/div&gt;" style="shape=document;whiteSpace=wrap;html=1;boundedLbl=1;" vertex="1" parent="1">
          <mxGeometry x="560" y="320" width="120" height="80" as="geometry" />
        </mxCell>
        <mxCell id="8Cre_9qktaq7agCZxoKe-36" value="" style="endArrow=classic;html=1;rounded=0;entryX=0;entryY=0.5;entryDx=0;entryDy=0;exitX=1;exitY=0.5;exitDx=0;exitDy=0;" edge="1" parent="1" source="8Cre_9qktaq7agCZxoKe-30" target="8Cre_9qktaq7agCZxoKe-35">
          <mxGeometry width="50" height="50" relative="1" as="geometry">
            <mxPoint x="480" y="390" as="sourcePoint" />
            <mxPoint x="530" y="340" as="targetPoint" />
          </mxGeometry>
        </mxCell>
        <mxCell id="8Cre_9qktaq7agCZxoKe-37" value="A1" style="triangle;whiteSpace=wrap;html=1;direction=south;" vertex="1" parent="1">
          <mxGeometry x="320" y="585" width="80" height="60" as="geometry" />
        </mxCell>
        <mxCell id="8Cre_9qktaq7agCZxoKe-38" value="A2" style="triangle;whiteSpace=wrap;html=1;direction=south;" vertex="1" parent="1">
          <mxGeometry x="580" y="480" width="80" height="60" as="geometry" />
        </mxCell>
      </root>
    </mxGraphModel>
  </diagram>
</mxfile>
